<?xml version="1.0" encoding="utf-8"?>
<!-- Generator: Adobe Illustrator 22.0.0, SVG Export Plug-In . SVG Version: 6.00 Build 0)  -->
<svg version="1.1" id="Capa_1" xmlns="http://www.w3.org/2000/svg" xmlns:xlink="http://www.w3.org/1999/xlink" x="0px" y="0px"
	 viewBox="0 0 512 512" style="enable-background:new 0 0 512 512;" xml:space="preserve">
<style type="text/css">
	.st0{fill:#04D7BF;}
</style>
<g>
	<g>
		<path class="st0" d="M256,512c89.1,0,161.6-81.4,161.6-181.4c0-80.9-110.1-251-157.1-323.6c-1.6-2.4-3.1-4.7-4.5-7
			c-1.4,2.2-2.9,4.5-4.5,6.9c-47,72.7-157.2,242.8-157.2,323.7C94.4,430.6,166.9,512,256,512z M256,271.2
			c32.7,0,59.4,26.6,59.4,59.4S288.7,390,256,390s-59.4-26.6-59.4-59.4C196.6,297.9,223.3,271.2,256,271.2z"/>
		<path class="st0" d="M256,370.2c21.8,0,39.6-17.8,39.6-39.6S277.8,291,256,291c-21.8,0-39.6,17.8-39.6,39.6
			C216.4,352.4,234.2,370.2,256,370.2z"/>
	</g>
</g>
</svg>
